<svg width="16" height="19" viewBox="0 0 16 19" fill="none" xmlns="http://www.w3.org/2000/svg">
<g id="Group">
<path id="Vector" d="M7.66667 10.1667C9.04738 10.1667 10.1667 9.04738 10.1667 7.66667C10.1667 6.28596 9.04738 5.16667 7.66667 5.16667C6.28596 5.16667 5.16667 6.28596 5.16667 7.66667C5.16667 9.04738 6.28596 10.1667 7.66667 10.1667Z" stroke="#F5F5F5" stroke-width="1.5" stroke-linecap="round" stroke-linejoin="round"/>
<path id="Vector_2" d="M7.66667 1C5.89856 1 4.20286 1.70238 2.95262 2.95262C1.70238 4.20286 1 5.89856 1 7.66667C1 9.24333 1.335 10.275 2.25 11.4167L7.66667 17.6667L13.0833 11.4167C13.9983 10.275 14.3333 9.24333 14.3333 7.66667C14.3333 5.89856 13.631 4.20286 12.3807 2.95262C11.1305 1.70238 9.43478 1 7.66667 1Z" stroke="#F5F5F5" stroke-width="1.5" stroke-linecap="round" stroke-linejoin="round"/>
</g>
</svg>
