<svg width="14" height="14" viewBox="0 0 14 14" fill="none" xmlns="http://www.w3.org/2000/svg">
<g id="la:hiking">
<path id="Vector" d="M7.2187 1.75C6.81308 1.75161 6.42454 1.91346 6.13772 2.20027C5.85091 2.48709 5.68906 2.87563 5.68745 3.28125C5.68745 4.12212 6.37782 4.8125 7.2187 4.8125C8.05957 4.8125 8.74995 4.12212 8.74995 3.28125C8.74995 2.44037 8.05957 1.75 7.2187 1.75ZM7.2187 2.625C7.5862 2.625 7.87495 2.91375 7.87495 3.28125C7.87495 3.64875 7.5862 3.9375 7.2187 3.9375C6.8512 3.9375 6.56245 3.64875 6.56245 3.28125C6.56245 2.91375 6.8512 2.625 7.2187 2.625ZM4.85357 4.59375C4.73952 4.58619 4.62498 4.59074 4.51189 4.60731C4.27426 4.64772 4.05202 4.75173 3.86876 4.90831C3.48639 5.23294 3.26414 5.74919 3.10314 6.50781C3.05239 6.75238 3.0677 7.00525 3.18539 7.20519C3.30351 7.40513 3.48814 7.52631 3.65045 7.60156C3.97682 7.75206 4.2962 7.78094 4.47076 7.82031L4.67595 6.97244C4.41257 6.91294 4.1422 6.86481 4.0197 6.80881C3.95801 6.7795 3.9497 6.76244 3.95101 6.76769C3.94448 6.74066 3.94448 6.71246 3.95101 6.68544C4.09101 6.02262 4.29445 5.70281 4.4432 5.57812C4.59195 5.45344 4.71489 5.43288 4.99007 5.49588L5.1817 4.63487C5.07374 4.61156 4.96394 4.5978 4.85357 4.59375ZM5.6192 4.73069L4.97651 7.65625C4.90476 7.98438 5.03995 8.34006 5.30464 8.54481L6.84945 9.74794L7.23226 12.25H8.12126L7.71089 9.61144C7.67756 9.38929 7.56008 9.18847 7.38276 9.05056L5.83795 7.84744L6.28901 5.81044L6.74007 5.93338L7.51926 6.68587C7.77257 6.93 8.15364 6.98775 8.47651 6.8495L9.18745 6.54938V12.25H10.0624V4.8125H9.18745V5.60569L8.13482 6.05631L7.3552 5.30469C7.24836 5.20029 7.11657 5.12498 6.97239 5.08594L5.6192 4.73069ZM5.04476 9.02344L4.67551 10.1307L3.5822 12.25H4.56657L5.45557 10.5411C5.47745 10.4983 5.4967 10.4488 5.51026 10.4042L5.7837 9.59787L5.04476 9.02344Z" fill="#D3F462"/>
</g>
</svg>
