<svg width="76" height="14" viewBox="0 0 76 14" fill="none" xmlns="http://www.w3.org/2000/svg">
<g id="icons-right">
<g id="battery">
<path id="outline" opacity="0.35" d="M52 1.02734H69C70.9178 1.02734 72.4727 2.58222 72.4727 4.5V9.5C72.4727 11.4178 70.9178 12.9727 69 12.9727H52C50.0822 12.9727 48.5273 11.4178 48.5273 9.5V4.5C48.5273 2.58222 50.0822 1.02734 52 1.02734Z" stroke="white" stroke-width="1.05509"/>
<path id="end" opacity="0.4" d="M74 5.5V9.72034C74.8491 9.36291 75.4012 8.5314 75.4012 7.61017C75.4012 6.68894 74.8491 5.85744 74 5.5Z" fill="white"/>
<path id="charged" d="M50 4.5C50 3.39543 50.8954 2.5 52 2.5H69C70.1046 2.5 71 3.39543 71 4.5V9.5C71 10.6046 70.1046 11.5 69 11.5H52C50.8954 11.5 50 10.6046 50 9.5V4.5Z" fill="white"/>
</g>
<path id="wi-fi" fill-rule="evenodd" clip-rule="evenodd" d="M33.5005 3.08753C35.967 3.08764 38.3393 4.05505 40.1269 5.78982C40.2615 5.92375 40.4766 5.92206 40.6092 5.78603L41.896 4.46045C41.9631 4.39146 42.0006 4.298 42 4.20076C41.9994 4.10353 41.9609 4.01052 41.893 3.94234C37.2011 -0.647446 29.7991 -0.647446 25.1072 3.94234C25.0392 4.01047 25.0006 4.10345 25 4.20069C24.9994 4.29792 25.0367 4.39141 25.1038 4.46045L26.391 5.78603C26.5235 5.92226 26.7388 5.92396 26.8733 5.78982C28.6612 4.05494 31.0337 3.08752 33.5005 3.08753ZM33.5359 7.17235C34.8911 7.17227 36.198 7.68644 37.2025 8.61497C37.3384 8.74674 37.5524 8.74389 37.6849 8.60853L38.9702 7.28295C39.0379 7.21342 39.0754 7.11909 39.0744 7.02108C39.0735 6.92306 39.034 6.82954 38.965 6.76142C35.9059 3.85683 31.1685 3.85683 28.1094 6.76142C28.0403 6.82953 28.0009 6.92311 28 7.02115C27.9991 7.1192 28.0368 7.21352 28.1046 7.28295L29.3895 8.60853C29.522 8.74389 29.736 8.74674 29.8719 8.61497C30.8758 7.68706 32.1816 7.17293 33.5359 7.17235ZM36.1496 9.84267C36.1515 9.94096 36.1137 10.0357 36.0449 10.1046L33.8217 12.3948C33.7565 12.4621 33.6676 12.5 33.5749 12.5C33.4822 12.5 33.3933 12.4621 33.3282 12.3948L31.1045 10.1046C31.0358 10.0357 30.998 9.94088 31.0001 9.84259C31.0021 9.7443 31.0438 9.65123 31.1153 9.58534C32.5351 8.3595 34.6147 8.3595 36.0345 9.58534C36.106 9.65128 36.1476 9.74438 36.1496 9.84267Z" fill="white"/>
<g id="signal">
<path d="M10 3.5C10 2.94772 10.4477 2.5 11 2.5H12C12.5523 2.5 13 2.94772 13 3.5V11.5C13 12.0523 12.5523 12.5 12 12.5H11C10.4477 12.5 10 12.0523 10 11.5V3.5Z" fill="white"/>
<path d="M15 1.5C15 0.947715 15.4477 0.5 16 0.5H17C17.5523 0.5 18 0.947715 18 1.5V11.5C18 12.0523 17.5523 12.5 17 12.5H16C15.4477 12.5 15 12.0523 15 11.5V1.5Z" fill="white"/>
<path d="M5 7C5 6.44772 5.44772 6 6 6H7C7.55228 6 8 6.44772 8 7V11.5C8 12.0523 7.55228 12.5 7 12.5H6C5.44772 12.5 5 12.0523 5 11.5V7Z" fill="white"/>
<path d="M0 9.5C0 8.94772 0.447715 8.5 1 8.5H2C2.55228 8.5 3 8.94772 3 9.5V11.5C3 12.0523 2.55228 12.5 2 12.5H1C0.447715 12.5 0 12.0523 0 11.5V9.5Z" fill="white"/>
</g>
</g>
</svg>
