<svg width="18" height="18" viewBox="0 0 18 18" fill="none" xmlns="http://www.w3.org/2000/svg">
<g id="mdi:planner-outline">
<path id="Vector" d="M12.75 3V7.5L11.25 6L9.75 7.5V3H6.75V15H14.25V3H12.75ZM2.25 5.25V3.75H3.75V3C3.75 2.60218 3.90804 2.22064 4.18934 1.93934C4.47064 1.65804 4.85218 1.5 5.25 1.5H14.25C15.0375 1.5 15.75 2.2125 15.75 3V15C15.75 15.7875 15.0375 16.5 14.25 16.5H5.25C4.4625 16.5 3.75 15.7875 3.75 15V14.25H2.25V12.75H3.75V9.75H2.25V8.25H3.75V5.25H2.25ZM3.75 3.75V5.25H5.25V3.75H3.75ZM3.75 14.25H5.25V12.75H3.75V14.25ZM3.75 9.75H5.25V8.25H3.75V9.75Z" fill="#D1F462"/>
</g>
</svg>
