<svg width="24" height="24" viewBox="0 0 24 24" fill="none" xmlns="http://www.w3.org/2000/svg">
<g id="mdi:latest">
<path id="Vector" d="M14.5238 9.80952H13.381V13.619L16.6419 15.5543L17.1905 14.6324L14.5238 13.0476V9.80952ZM14.1429 6C12.3242 6 10.5801 6.72245 9.29413 8.00841C8.00816 9.29437 7.28571 11.0385 7.28571 12.8571H5L8.01714 15.9276L11.0952 12.8571H8.80952C8.80952 11.4427 9.37143 10.0861 10.3716 9.08591C11.3718 8.08571 12.7284 7.52381 14.1429 7.52381C15.5573 7.52381 16.9139 8.08571 17.9141 9.08591C18.9143 10.0861 19.4762 11.4427 19.4762 12.8571C19.4762 14.2716 18.9143 15.6282 17.9141 16.6284C16.9139 17.6286 15.5573 18.1905 14.1429 18.1905C12.6724 18.1905 11.339 17.5886 10.379 16.621L9.29714 17.7029C9.93075 18.3432 10.6856 18.8509 11.5176 19.1962C12.3496 19.5416 13.242 19.7177 14.1429 19.7143C15.9615 19.7143 17.7056 18.9918 18.9916 17.7059C20.2776 16.4199 21 14.6758 21 12.8571C21 11.0385 20.2776 9.29437 18.9916 8.00841C17.7056 6.72245 15.9615 6 14.1429 6Z" fill="#FF6525"/>
</g>
</svg>
