<svg width="25" height="24" viewBox="0 0 25 24" fill="none" xmlns="http://www.w3.org/2000/svg">
<g id="ic:round-plus" clip-path="url(#clip0_196_4907)">
<path id="Vector" d="M20.9286 12.5714H13.0714V20.4285C13.0714 20.8453 12.9059 21.245 12.6112 21.5397C12.3165 21.8344 11.9168 21.9999 11.5 21.9999C11.0832 21.9999 10.6835 21.8344 10.3888 21.5397C10.0941 21.245 9.92857 20.8453 9.92857 20.4285V12.5714H2.07143C1.65466 12.5714 1.25496 12.4058 0.960261 12.1111C0.665561 11.8164 0.5 11.4167 0.5 10.9999C0.5 10.5832 0.665561 10.1835 0.960261 9.88877C1.25496 9.59407 1.65466 9.42851 2.07143 9.42851H9.92857V1.57137C9.92857 1.1546 10.0941 0.754899 10.3888 0.460199C10.6835 0.165499 11.0832 -6.10352e-05 11.5 -6.10352e-05C11.9168 -6.10352e-05 12.3165 0.165499 12.6112 0.460199C12.9059 0.754899 13.0714 1.1546 13.0714 1.57137V9.42851H20.9286C21.3453 9.42851 21.745 9.59407 22.0397 9.88877C22.3344 10.1835 22.5 10.5832 22.5 10.9999C22.5 11.4167 22.3344 11.8164 22.0397 12.1111C21.745 12.4058 21.3453 12.5714 20.9286 12.5714Z" fill="#D3F462"/>
</g>
<defs>
<clipPath id="clip0_196_4907">
<rect width="24" height="24" fill="white" transform="translate(0.5)"/>
</clipPath>
</defs>
</svg>
