<svg width="25" height="24" viewBox="0 0 25 24" fill="none" xmlns="http://www.w3.org/2000/svg">
<g id="li:search">
<path id="Vector (Stroke)" fill-rule="evenodd" clip-rule="evenodd" d="M11.7001 4C7.83408 4 4.70007 7.13401 4.70007 11C4.70007 14.866 7.83408 18 11.7001 18C15.5661 18 18.7001 14.866 18.7001 11C18.7001 7.13401 15.5661 4 11.7001 4ZM2.70007 11C2.70007 6.02944 6.72951 2 11.7001 2C16.6706 2 20.7001 6.02944 20.7001 11C20.7001 15.9706 16.6706 20 11.7001 20C6.72951 20 2.70007 15.9706 2.70007 11Z" fill="#676D75"/>
<path id="Vector (Stroke)_2" fill-rule="evenodd" clip-rule="evenodd" d="M16.643 15.9429C17.0335 15.5524 17.6667 15.5524 18.0572 15.9429L22.4072 20.2929C22.7977 20.6834 22.7977 21.3166 22.4072 21.7071C22.0167 22.0977 21.3835 22.0977 20.993 21.7071L16.643 17.3571C16.2525 16.9666 16.2525 16.3334 16.643 15.9429Z" fill="#676D75"/>
</g>
</svg>
