<svg width="24" height="25" viewBox="0 0 24 25" fill="none" xmlns="http://www.w3.org/2000/svg">
<g id="uil:calendar">
<path id="Vector" d="M17.6 6.26666H16V5.46666C16 5.25448 15.9157 5.051 15.7657 4.90097C15.6157 4.75094 15.4122 4.66666 15.2 4.66666C14.9878 4.66666 14.7843 4.75094 14.6343 4.90097C14.4843 5.051 14.4 5.25448 14.4 5.46666V6.26666H9.6V5.46666C9.6 5.25448 9.51571 5.051 9.36569 4.90097C9.21566 4.75094 9.01217 4.66666 8.8 4.66666C8.58783 4.66666 8.38434 4.75094 8.23431 4.90097C8.08429 5.051 8 5.25448 8 5.46666V6.26666H6.4C5.76348 6.26666 5.15303 6.51951 4.70294 6.9696C4.25286 7.41969 4 8.03014 4 8.66666V18.2667C4 18.9032 4.25286 19.5136 4.70294 19.9637C5.15303 20.4138 5.76348 20.6667 6.4 20.6667H17.6C18.2365 20.6667 18.847 20.4138 19.2971 19.9637C19.7471 19.5136 20 18.9032 20 18.2667V8.66666C20 8.03014 19.7471 7.41969 19.2971 6.9696C18.847 6.51951 18.2365 6.26666 17.6 6.26666ZM18.4 18.2667C18.4 18.4788 18.3157 18.6823 18.1657 18.8323C18.0157 18.9824 17.8122 19.0667 17.6 19.0667H6.4C6.18783 19.0667 5.98434 18.9824 5.83431 18.8323C5.68429 18.6823 5.6 18.4788 5.6 18.2667V12.6667C10.5987 12.6667 13.4013 12.6667 18.4 12.6667V18.2667ZM18.4 11.0667H5.6V8.66666C5.6 8.45448 5.68429 8.251 5.83431 8.10097C5.98434 7.95094 6.18783 7.86666 6.4 7.86666H8V8.66666C8 8.87883 8.08429 9.08231 8.23431 9.23234C8.38434 9.38237 8.58783 9.46666 8.8 9.46666C9.01217 9.46666 9.21566 9.38237 9.36569 9.23234C9.51571 9.08231 9.6 8.87883 9.6 8.66666V7.86666H14.4V8.66666C14.4 8.87883 14.4843 9.08231 14.6343 9.23234C14.7843 9.38237 14.9878 9.46666 15.2 9.46666C15.4122 9.46666 15.6157 9.38237 15.7657 9.23234C15.9157 9.08231 16 8.87883 16 8.66666V7.86666H17.6C17.8122 7.86666 18.0157 7.95094 18.1657 8.10097C18.3157 8.251 18.4 8.45448 18.4 8.66666V11.0667Z" fill="#F5F5F5"/>
</g>
</svg>
