<svg width="25" height="24" viewBox="0 0 25 24" fill="none" xmlns="http://www.w3.org/2000/svg">
<g id="li:user">
<path id="Vector (Stroke)" fill-rule="evenodd" clip-rule="evenodd" d="M4.56444 15.4645C5.50212 14.5268 6.77389 14 8.09998 14H16.1C17.4261 14 18.6978 14.5268 19.6355 15.4645C20.5732 16.4021 21.1 17.6739 21.1 19V21C21.1 21.5523 20.6523 22 20.1 22C19.5477 22 19.1 21.5523 19.1 21V19C19.1 18.2044 18.7839 17.4413 18.2213 16.8787C17.6587 16.3161 16.8956 16 16.1 16H8.09998C7.30433 16 6.54126 16.3161 5.97866 16.8787C5.41605 17.4413 5.09998 18.2044 5.09998 19V21C5.09998 21.5523 4.65226 22 4.09998 22C3.54769 22 3.09998 21.5523 3.09998 21V19C3.09998 17.6739 3.62676 16.4021 4.56444 15.4645Z" fill="#676D75"/>
<path id="Vector (Stroke)_2" fill-rule="evenodd" clip-rule="evenodd" d="M12.1 4C10.4431 4 9.09998 5.34315 9.09998 7C9.09998 8.65685 10.4431 10 12.1 10C13.7568 10 15.1 8.65685 15.1 7C15.1 5.34315 13.7568 4 12.1 4ZM7.09998 7C7.09998 4.23858 9.33855 2 12.1 2C14.8614 2 17.1 4.23858 17.1 7C17.1 9.76142 14.8614 12 12.1 12C9.33855 12 7.09998 9.76142 7.09998 7Z" fill="#676D75"/>
</g>
</svg>
